<?xml version="1.0" encoding="UTF-8" standalone="no"?>
<!-- Created with Inkscape (http://www.inkscape.org/) -->

<svg
   xmlns:dc="http://purl.org/dc/elements/1.1/"
   xmlns:cc="http://creativecommons.org/ns#"
   xmlns:rdf="http://www.w3.org/1999/02/22-rdf-syntax-ns#"
   xmlns:svg="http://www.w3.org/2000/svg"
   xmlns="http://www.w3.org/2000/svg"
   xmlns:xlink="http://www.w3.org/1999/xlink"
   xmlns:sodipodi="http://sodipodi.sourceforge.net/DTD/sodipodi-0.dtd"
   xmlns:inkscape="http://www.inkscape.org/namespaces/inkscape"
   width="90"
   height="90"
   id="svg2"
   version="1.1"
   inkscape:version="0.48+devel r10192"
   sodipodi:docname="turretSprites.svg"
   inkscape:export-filename="/Users/Hillary/games/towerattack/graphics/turretSprites.png"
   inkscape:export-xdpi="90"
   inkscape:export-ydpi="90">
  <defs
     id="defs4" />
  <sodipodi:namedview
     id="base"
     pagecolor="#ffffff"
     bordercolor="#666666"
     borderopacity="1.0"
     inkscape:pageopacity="0.0"
     inkscape:pageshadow="2"
     inkscape:zoom="2.8284271"
     inkscape:cx="34.56777"
     inkscape:cy="25.166077"
     inkscape:document-units="px"
     inkscape:current-layer="layer6"
     showgrid="true"
     inkscape:window-width="1280"
     inkscape:window-height="701"
     inkscape:window-x="0"
     inkscape:window-y="0"
     inkscape:window-maximized="1"
     inkscape:snap-global="false">
    <inkscape:grid
       type="xygrid"
       id="grid852"
       empspacing="10"
       visible="true"
       enabled="true"
       snapvisiblegridlinesonly="true"
       spacingx="3px"
       spacingy="3px"
       empcolor="#f14d69"
       empopacity="0.25098039" />
  </sodipodi:namedview>
  <metadata
     id="metadata7">
    <rdf:RDF>
      <cc:Work
         rdf:about="">
        <dc:format>image/svg+xml</dc:format>
        <dc:type
           rdf:resource="http://purl.org/dc/dcmitype/StillImage" />
        <dc:title />
      </cc:Work>
    </rdf:RDF>
  </metadata>
  <g
     inkscape:groupmode="layer"
     id="layer8"
     inkscape:label="background"
     style="display:none"
     transform="translate(0,30)">
    <rect
       style="fill:#87de87;fill-opacity:1;fill-rule:nonzero;stroke:#008000;stroke-width:0.5;stroke-linecap:round;stroke-linejoin:round;stroke-miterlimit:4;stroke-opacity:1;stroke-dasharray:none;stroke-dashoffset:0"
       id="rect1773"
       width="240"
       height="150"
       x="-90"
       y="-30" />
  </g>
  <g
     inkscape:label="projectile"
     inkscape:groupmode="layer"
     id="layer1"
     transform="translate(0,-962.36218)"
     style="display:inline">
    <g
       inkscape:groupmode="layer"
       id="layer3"
       inkscape:label="projectileBase"
       style="display:inline">
      <g
         id="g1681"
         transform="matrix(0,1,-1,0,1022.3623,992.36213)">
        <g
           id="g1815"
           transform="matrix(1,-7.9387446e-6,7.9387446e-6,1,-0.00799249,1.1911276e-4)"
           inkscape:transform-center-x="-3.0553434e-05"
           inkscape:transform-center-y="-2.9999729">
          <path
             sodipodi:type="arc"
             style="fill:#000000;fill-opacity:1;fill-rule:nonzero;stroke:none"
             id="path891"
             sodipodi:cx="15"
             sodipodi:cy="15"
             sodipodi:rx="6"
             sodipodi:ry="6"
             d="M 21,15 A 6,6 0 1 1 9,15 6,6 0 1 1 21,15 z"
             transform="translate(0,992.36218)" />
          <rect
             style="fill:#4d4d4d;fill-opacity:1;fill-rule:nonzero;stroke:none"
             id="rect856"
             width="30"
             height="8.9999924"
             x="0"
             y="1007.3622"
             rx="3" />
          <rect
             style="fill:#b3b3b3;fill-opacity:1;fill-rule:nonzero;stroke:none"
             id="rect858"
             width="6"
             height="20.999994"
             x="12"
             y="992.36218" />
          <rect
             style="fill:#f9f9f9;fill-opacity:1;fill-rule:nonzero;stroke:none"
             id="rect883"
             width="9"
             height="1"
             x="2"
             y="1008.3622"
             rx="2" />
          <rect
             style="fill:#f9f9f9;fill-opacity:1;fill-rule:nonzero;stroke:none"
             id="rect885"
             width="9"
             height="1"
             x="19"
             y="1008.3622"
             rx="2" />
          <rect
             style="fill:#f9f9f9;fill-opacity:1;fill-rule:nonzero;stroke:none"
             id="rect887"
             width="1"
             height="14.999982"
             x="13"
             y="995.36218"
             rx="1.5" />
        </g>
      </g>
      <g
         id="g1689"
         transform="matrix(0,1,-1,0,1052.3622,992.36218)">
        <path
           sodipodi:type="arc"
           style="fill:#000000;fill-opacity:1;fill-rule:nonzero;stroke:none"
           id="path1691"
           sodipodi:cx="15"
           sodipodi:cy="15"
           sodipodi:rx="6"
           sodipodi:ry="6"
           d="M 21,15 A 6,6 0 1 1 9,15 6,6 0 1 1 21,15 z"
           transform="translate(0,992.36218)" />
        <rect
           style="fill:#4d4d4d;fill-opacity:1;fill-rule:nonzero;stroke:none"
           id="rect1693"
           width="30"
           height="8.9999924"
           x="0"
           y="1007.3622"
           rx="3" />
        <rect
           style="fill:#b3b3b3;fill-opacity:1;fill-rule:nonzero;stroke:none"
           id="rect1695"
           width="6"
           height="20.999994"
           x="12"
           y="992.36218" />
        <rect
           style="fill:#f9f9f9;fill-opacity:1;fill-rule:nonzero;stroke:none"
           id="rect1697"
           width="9"
           height="1"
           x="2"
           y="1008.3622"
           rx="2" />
        <rect
           style="fill:#f9f9f9;fill-opacity:1;fill-rule:nonzero;stroke:none"
           id="rect1699"
           width="9"
           height="1"
           x="19"
           y="1008.3622"
           rx="2" />
        <rect
           style="fill:#f9f9f9;fill-opacity:1;fill-rule:nonzero;stroke:none"
           id="rect1701"
           width="1"
           height="14.999982"
           x="13"
           y="995.36218"
           rx="1.5" />
      </g>
    </g>
    <g
       inkscape:groupmode="layer"
       id="layer4"
       inkscape:label="projectileRed"
       style="display:inline">
      <g
         id="g1666"
         style="fill:#800000;stroke:#ff0000"
         transform="matrix(0,1,-1,0,1022.7233,992.14922)">
        <rect
           y="1011.2511"
           x="1.0370371"
           height="3.2222223"
           width="9.666667"
           id="rect893"
           style="fill:#800000;fill-opacity:1;fill-rule:nonzero;stroke:#ff0000;stroke-width:0.5;stroke-linecap:round;stroke-linejoin:round;stroke-miterlimit:4;stroke-dasharray:none" />
        <rect
           style="fill:#800000;fill-opacity:1;fill-rule:nonzero;stroke:#ff0000;stroke-width:0.5;stroke-linecap:round;stroke-linejoin:round;stroke-miterlimit:4;stroke-dasharray:none"
           id="rect895"
           width="9.666667"
           height="3.2222223"
           x="19.296297"
           y="1011.2511" />
      </g>
    </g>
    <g
       inkscape:groupmode="layer"
       id="layer5"
       inkscape:label="projectileGreen"
       style="display:inline">
      <g
         id="g427"
         transform="matrix(0,1,-1,0,1052.7233,962.14925)">
        <rect
           style="fill:#00ff00;fill-opacity:1;fill-rule:nonzero;stroke:#008000;stroke-width:0.5;stroke-linecap:round;stroke-linejoin:round;stroke-miterlimit:4;stroke-dasharray:none"
           id="rect1672"
           width="9.666667"
           height="3.2222223"
           x="31.037001"
           y="1011.2511" />
        <rect
           y="1011.2511"
           x="49.296261"
           height="3.2222223"
           width="9.666667"
           id="rect1674"
           style="fill:#00ff00;fill-opacity:1;fill-rule:nonzero;stroke:#008000;stroke-width:0.5;stroke-linecap:round;stroke-linejoin:round;stroke-miterlimit:4;stroke-dasharray:none" />
      </g>
    </g>
    <g
       inkscape:groupmode="layer"
       id="layer10"
       inkscape:label="boom"
       style="display:inline">
      <g
         id="g1799"
         transform="matrix(0,1,-0.66666667,0,750.5748,932.36219)">
        <path
           style="fill:#b3b3b3;fill-opacity:1;fill-rule:nonzero;stroke:none"
           d="m 75,1004.3622 c -1.656854,0 -3,3.7721 -3,7.5 l 0,9 6,0 0,-9 c 0,-3.7279 -1.343146,-7.5 -3,-7.5 z"
           id="rect1795"
           inkscape:connector-curvature="0"
           sodipodi:nodetypes="ssccss" />
        <rect
           style="fill:#ffffff;fill-opacity:1;fill-rule:nonzero;stroke:none"
           id="rect1811"
           width="1"
           height="9"
           x="73"
           y="1008.1122"
           rx="2" />
        <path
           sodipodi:type="arc"
           style="fill:#4d4d4d;fill-opacity:1;fill-rule:nonzero;stroke:none"
           id="path1813"
           sodipodi:cx="75"
           sodipodi:cy="19.5"
           sodipodi:rx="3"
           sodipodi:ry="1.5"
           d="m 78,19.5 a 3,1.5 0 1 1 -6,0 3,1.5 0 1 1 6,0 z"
           transform="matrix(1,0,0,1.5,0,990.86218)" />
      </g>
    </g>
  </g>
  <g
     inkscape:groupmode="layer"
     id="layer2"
     inkscape:label="laser"
     transform="translate(0,30)">
    <g
       id="g442"
       transform="matrix(0,1,-1,0,60,30)">
      <path
         inkscape:connector-curvature="0"
         id="path1726"
         d="m 15,41.5 c -1.656854,0 -3,-0.671573 -3,-1.5 0,-0.271828 0.153396,-0.530132 0.40625,-0.75 C 12.924,39.700206 13.886801,40 15,40 16.113199,40 17.076,39.700206 17.59375,39.25 17.846604,39.469868 18,39.728172 18,40 c 0,0.828427 -1.343146,1.5 -3,1.5 z"
         style="fill:#f2f2f2;fill-opacity:1;fill-rule:nonzero;stroke:#cccccc" />
      <path
         style="fill:#f2f2f2;fill-opacity:1;fill-rule:nonzero;stroke:#cccccc"
         d="m 15,37.5 c -1.656854,0 -3,-0.671573 -3,-1.5 0,-0.271828 0.153396,-0.530132 0.40625,-0.75 C 12.924,35.700206 13.886801,36 15,36 16.113199,36 17.076,35.700206 17.59375,35.25 17.846604,35.469868 18,35.728172 18,36 c 0,0.828427 -1.343146,1.5 -3,1.5 z"
         id="path1720"
         inkscape:connector-curvature="0" />
      <rect
         y="44"
         x="6"
         height="9"
         width="18"
         id="rect1709"
         style="fill:#000000;fill-opacity:1;fill-rule:nonzero;stroke:none" />
      <path
         style="fill:#f2f2f2;fill-opacity:1;fill-rule:nonzero;stroke:#cccccc"
         d="m 15,45.5 c -1.656854,0 -3,-0.671573 -3,-1.5 0,-0.271828 0.153396,-0.530132 0.40625,-0.75 C 12.924,43.700206 13.886801,44 15,44 16.113199,44 17.076,43.700206 17.59375,43.25 17.846604,43.469868 18,43.728172 18,44 c 0,0.828427 -1.343146,1.5 -3,1.5 z"
         id="path1728"
         inkscape:connector-curvature="0" />
      <rect
         y="30"
         x="13.5"
         height="21"
         width="3"
         id="rect1703"
         style="fill:#999999;fill-opacity:1;fill-rule:nonzero;stroke:none" />
      <rect
         rx="2"
         y="42"
         x="0"
         height="12"
         width="9"
         id="rect1705"
         style="fill:#4d4d4d;fill-opacity:1;fill-rule:nonzero;stroke:none" />
      <rect
         rx="2"
         y="42"
         x="21"
         height="12"
         width="9"
         id="rect1707"
         style="fill:#4d4d4d;fill-opacity:1;fill-rule:nonzero;stroke:none" />
      <path
         inkscape:connector-curvature="0"
         id="path1715"
         d="m 15,34.5 c -1.656854,0 -3,0.671573 -3,1.5 0,0.271828 0.153396,0.530132 0.40625,0.75 C 12.924,36.299794 13.886801,36 15,36 c 1.113199,0 2.076,0.299794 2.59375,0.75 C 17.846604,36.530132 18,36.271828 18,36 18,35.171573 16.656854,34.5 15,34.5 z"
         style="fill:#f2f2f2;fill-opacity:1;fill-rule:nonzero;stroke:#cccccc" />
      <path
         style="fill:#f2f2f2;fill-opacity:1;fill-rule:nonzero;stroke:#cccccc"
         d="m 15,38.5 c -1.656854,0 -3,0.671573 -3,1.5 0,0.271828 0.153396,0.530132 0.40625,0.75 C 12.924,40.299794 13.886801,40 15,40 c 1.113199,0 2.076,0.299794 2.59375,0.75 C 17.846604,40.530132 18,40.271828 18,40 18,39.171573 16.656854,38.5 15,38.5 z"
         id="path1722"
         inkscape:connector-curvature="0" />
      <path
         inkscape:connector-curvature="0"
         id="path1724"
         d="m 15,42.5 c -1.656854,0 -3,0.671573 -3,1.5 0,0.271828 0.153396,0.530132 0.40625,0.75 C 12.924,44.299794 13.886801,44 15,44 c 1.113199,0 2.076,0.299794 2.59375,0.75 C 17.846604,44.530132 18,44.271828 18,44 18,43.171573 16.656854,42.5 15,42.5 z"
         style="fill:#f2f2f2;fill-opacity:1;fill-rule:nonzero;stroke:#cccccc" />
    </g>
    <use
       x="0"
       y="0"
       xlink:href="#g442"
       id="use454"
       transform="translate(30,0)"
       width="90"
       height="90" />
    <g
       inkscape:groupmode="layer"
       id="layer6"
       inkscape:label="laserRed"
       style="display:inline">
      <g
         id="g460"
         transform="matrix(0,1,-1,0,60,30)">
        <rect
           y="45.25"
           x="1.75"
           height="5.5"
           width="5.5"
           id="rect1752"
           style="fill:#800000;fill-opacity:1;fill-rule:nonzero;stroke:#ff0000;stroke-width:0.5;stroke-linecap:round;stroke-linejoin:round;stroke-miterlimit:4;stroke-opacity:1;stroke-dasharray:none;stroke-dashoffset:0" />
        <rect
           style="fill:#800000;fill-opacity:1;fill-rule:nonzero;stroke:#ff0000;stroke-width:0.5;stroke-linecap:round;stroke-linejoin:round;stroke-miterlimit:4;stroke-opacity:1;stroke-dasharray:none;stroke-dashoffset:0"
           id="rect1754"
           width="5.5"
           height="5.5"
           x="22.75"
           y="45.25" />
      </g>
    </g>
    <g
       inkscape:groupmode="layer"
       id="layer7"
       inkscape:label="laserGreen"
       style="display:inline">
      <g
         id="g456"
         transform="matrix(0,1,-1,0,90,0)">
        <rect
           y="45.25"
           x="52.75"
           height="5.5"
           width="5.5"
           id="rect1756"
           style="fill:#00ff00;fill-opacity:1;fill-rule:nonzero;stroke:#008000;stroke-width:0.5;stroke-linecap:round;stroke-linejoin:round;stroke-miterlimit:4;stroke-opacity:1;stroke-dasharray:none;stroke-dashoffset:0" />
        <rect
           style="fill:#00ff00;fill-opacity:1;fill-rule:nonzero;stroke:#008000;stroke-width:0.5;stroke-linecap:round;stroke-linejoin:round;stroke-miterlimit:4;stroke-opacity:1;stroke-dasharray:none;stroke-dashoffset:0"
           id="rect1770"
           width="5.5"
           height="5.5"
           x="31.75"
           y="45.25" />
      </g>
    </g>
    <g
       inkscape:groupmode="layer"
       id="layer9"
       inkscape:label="boom"
       style="display:inline">
      <g
         id="g1806"
         transform="matrix(0,1.0992366,-0.83674599,0,114.32515,-37.478578)">
        <path
           inkscape:connector-curvature="0"
           id="path1786"
           d="M 74.166667,36.5 77.5,42.166666 74.166667,47.833333 77.5,53.5 l -5,-5.666667 3.333333,-5.666667 z"
           style="fill:#ffff00;stroke:#ffffff;stroke-width:0.52134782;stroke-linecap:butt;stroke-linejoin:miter;stroke-miterlimit:4;stroke-opacity:1;stroke-dasharray:none" />
        <path
           style="fill:#ffff00;stroke:#ffffff;stroke-width:0.52134782;stroke-linecap:butt;stroke-linejoin:miter;stroke-miterlimit:4;stroke-opacity:1;stroke-dasharray:none"
           d="M 74.166667,40.5 77.5,46.166666 74.166667,51.833333 77.5,57.5 l -5,-5.666667 3.333333,-5.666667 z"
           id="path1788"
           inkscape:connector-curvature="0" />
        <path
           inkscape:connector-curvature="0"
           id="path1790"
           d="M 75.833333,38.5 72.5,44.166666 75.833333,49.833333 72.5,55.5 l 5,-5.666667 -3.333333,-5.666667 z"
           style="fill:#ffff00;stroke:#ffffff;stroke-width:0.52134782;stroke-linecap:butt;stroke-linejoin:miter;stroke-miterlimit:4;stroke-opacity:1;stroke-dasharray:none" />
      </g>
    </g>
  </g>
  <g
     inkscape:groupmode="layer"
     id="layer11"
     inkscape:label="projectileLvl2"
     transform="translate(0,30)"
     style="display:inline">
    <g
       inkscape:groupmode="layer"
       id="layer13"
       inkscape:label="ProjectileLvl2Base">
      <g
         id="g1840"
         transform="matrix(0,1,-1,0,0,-30)">
        <path
           transform="translate(0,3)"
           d="m 21,-18 a 6,6 0 1 1 -12,0 6,6 0 1 1 12,0 z"
           sodipodi:ry="6"
           sodipodi:rx="6"
           sodipodi:cy="-18"
           sodipodi:cx="15"
           id="path1838"
           style="fill:#000000;fill-opacity:1;fill-rule:nonzero;stroke:none"
           sodipodi:type="arc" />
        <rect
           rx="3"
           y="-15"
           x="0"
           height="9"
           width="30"
           id="rect1826"
           style="fill:#333333;fill-opacity:1;fill-rule:nonzero;stroke:none" />
        <rect
           y="-30"
           x="11"
           height="21"
           width="8"
           id="rect1828"
           style="fill:#cccccc;fill-opacity:1;fill-rule:nonzero;stroke:none" />
        <rect
           rx="2"
           y="-16"
           x="6"
           height="12"
           width="18"
           id="rect1830"
           style="fill:#808080;fill-opacity:1;fill-rule:nonzero;stroke:none" />
        <rect
           rx="0.66666669"
           y="-15"
           x="7"
           height="10"
           width="1"
           id="rect1832"
           style="fill:#f9f9f9;fill-opacity:1;fill-rule:nonzero;stroke:none" />
        <rect
           style="fill:#f9f9f9;fill-opacity:1;fill-rule:nonzero;stroke:none"
           id="rect1834"
           width="1"
           height="6"
           x="1"
           y="-13.5"
           rx="0.66666669" />
        <rect
           style="fill:#f9f9f9;fill-opacity:1;fill-rule:nonzero;stroke:none"
           id="rect1836"
           width="1.5"
           height="11"
           x="12"
           y="-28"
           rx="1" />
      </g>
      <use
         x="0"
         y="0"
         xlink:href="#g1840"
         id="use1849"
         transform="translate(30,0)"
         width="90"
         height="60" />
    </g>
    <g
       inkscape:groupmode="layer"
       id="layer14"
       inkscape:label="projectileLvl2Red">
      <rect
         style="fill:#800000;fill-opacity:1;fill-rule:nonzero;stroke:#ff0000;stroke-width:0.5;stroke-linecap:round;stroke-linejoin:round;stroke-miterlimit:4;stroke-opacity:1;stroke-dasharray:none;stroke-dashoffset:0"
         id="rect1852"
         width="12"
         height="8"
         x="-20.25"
         y="-14.25"
         transform="matrix(0,1,-1,0,0,0)" />
    </g>
    <g
       inkscape:groupmode="layer"
       id="layer15"
       inkscape:label="projectileLvl2Green">
      <rect
         style="fill:#00ff00;fill-opacity:1;fill-rule:nonzero;stroke:#008000;stroke-width:0.5;stroke-linecap:round;stroke-linejoin:round;stroke-miterlimit:4;stroke-opacity:1;stroke-dasharray:none;stroke-dashoffset:0"
         id="rect1855"
         width="12"
         height="8"
         x="-20.25"
         y="-44.25"
         transform="matrix(0,1,-1,0,0,0)" />
    </g>
    <g
       inkscape:groupmode="layer"
       id="layer16"
       inkscape:label="boom">
      <g
         id="g1869"
         transform="matrix(0,1,-1,0,58.5,-90)">
        <path
           sodipodi:nodetypes="zzcczz"
           inkscape:connector-curvature="0"
           id="rect1858"
           d="m 75,-24 c -2.833333,0 -4,3.75 -4,7.5 l 0,6 8,0 0,-6 c 0,-3.75 -1.166667,-7.5 -4,-7.5 z"
           style="fill:#808080;fill-opacity:1;fill-rule:nonzero;stroke:none" />
        <path
           transform="matrix(0.88888889,0,0,1.1666667,7,4.9999999)"
           d="m 81,-13.5 a 4.5,1.5 0 1 1 -9,0 4.5,1.5 0 1 1 9,0 z"
           sodipodi:ry="1.5"
           sodipodi:rx="4.5"
           sodipodi:cy="-13.5"
           sodipodi:cx="76.5"
           id="path1865"
           style="fill:#000000;fill-opacity:1;fill-rule:nonzero;stroke:none"
           sodipodi:type="arc" />
        <rect
           rx="1"
           y="-19.5"
           x="72"
           height="6.5"
           width="1"
           id="rect1867"
           style="fill:#f2f2f2;fill-opacity:1;fill-rule:nonzero;stroke:none" />
      </g>
    </g>
  </g>
</svg>
